<?xml version="1.0"?>
<svg width="1000" height="1000" xmlns="http://www.w3.org/2000/svg" xmlns:svg="http://www.w3.org/2000/svg" preserveAspectRatio="xMidYMid meet" version="1.0">
 <g class="layer">
  <title>Layer 1</title>
  <g fill="#000000" id="svg_1" transform="matrix(0.247061 0 0 -0.247061 -734.498 -734.172)">
   <path d="m4895,-2990c-82,-12 -165,-39 -250,-83c-77,-39 -106,-66 -783,-741c-486,-485 -717,-722 -748,-768c-86,-129 -126,-262 -125,-423c0,-181 62,-342 185,-487c90,-105 1331,-1331 1391,-1373c212,-151 505,-180 738,-72c103,48 152,83 268,194l99,95l0,294l0,293l-74,-40c-160,-86 -339,-135 -531,-145c-273,-15 -581,81 -805,250c-257,193 -421,454 -491,781c-20,93 -17,371 5,473c96,446 409,800 834,942c179,60 203,62 851,67l594,5l-284,285c-179,179 -309,301 -353,330c-155,104 -345,149 -521,123z" id="svg_2"/>
   <path d="m4888,-4300c-163,-28 -316,-119 -423,-253c-111,-139 -161,-292 -152,-467c10,-200 79,-346 228,-484c128,-118 283,-178 464,-180c149,-1 269,35 388,116c58,39 177,153 177,169c0,5 -127,10 -282,11l-283,3l-3,165c-2,91 0,216 3,278l7,112l622,0l623,0l6,-247c4,-137 7,-410 7,-608l0,-360l241,240c306,305 359,367 415,481c53,109 75,206 74,328c-1,146 -8,191 -39,271c-46,114 -92,179 -224,313l-121,122l-840,-1c-463,-1 -862,-5 -888,-9z" id="svg_3"/>
  </g>
 </g>
</svg>